<?xml version="1.0" encoding="utf-8"?>
<!DOCTYPE svg PUBLIC "-//W3C//DTD SVG 20010904//EN" "http://www.w3.org/TR/2001/REC-SVG-20010904/DTD/svg10.dtd">
<svg version="1.0" xmlns="http://www.w3.org/2000/svg" width="66pt" height="53pt" viewBox="0 0 66 53" style="" preserveAspectRatio="xMidYMid meet">
<g fill="#4874CBFF" stroke="#4874CBFF">
<path d="M 23.186 2.845 C 22.141 3.755 20.961 5.529 20.564 6.786 C 19.890 8.920 19.347 9.061 12.407 8.900 C 5.817 8.747 4.749 8.984 3.015 10.983 C 1.220 13.052 1.077 14.617 1.279 29.916 C 1.464 43.872 1.786 47.028 3.252 49.264 L 5.004 51.936 32.725 51.933 C 59.326 51.930 60.534 51.847 62.636 49.873 C 64.705 47.928 64.833 46.912 64.951 31.432 C 65.052 18.344 64.762 14.441 63.513 12.025 C 62.653 10.361 61.398 8.973 60.724 8.940 C 60.051 8.906 56.351 8.794 52.503 8.690 C 47.518 8.555 45.504 8.125 45.503 7.197 C 45.501 6.480 44.482 4.835 43.237 3.542 C 41.233 1.461 40.061 1.190 33.030 1.190 C 27.071 1.190 24.612 1.604 23.186 2.845 M 49.698 17.986 C 51.322 18.005 55.222 21.900 56.890 25.169 C 57.801 26.955 58.030 29.311 57.584 32.291 C 55.849 43.859 41.154 46.432 34.862 36.270 C 32.743 32.849 32.731 28.760 34.823 23.714 C 36.120 20.584 43.240 16.815 46.500 17.533 C 47.600 17.775 49.039 17.979 49.698 17.986 M 19.250 16.923 C 19.663 16.965 20.000 17.884 20.000 18.965 C 20.000 21.580 16.581 23.287 12.941 22.487 C 10.709 21.997 10.000 21.277 10.000 19.504 C 10.000 16.548 11.505 16.128 19.250 16.923 "/></g>
<g fill="#4874CBFF" stroke="#4874CBFF">
<path d="M 41.982 26.231 C 40.302 27.796 39.942 28.960 40.412 31.308 C 41.198 35.239 41.402 35.400 45.601 35.400 C 50.975 35.400 53.102 29.780 49.044 26.305 C 46.263 23.924 44.478 23.906 41.982 26.231 "/></g>
<g fill="#7697D8FF" stroke="#7697D8FF">
<path d="M 45.652 8.250 C 45.908 8.663 49.129 8.927 52.809 8.838 L 59.500 8.677 52.343 8.088 C 48.407 7.765 45.396 7.838 45.652 8.250 "/></g>
<g fill="#7697D8FF" stroke="#7697D8FF">
<path d="M 36.378 21.378 L 35.500 22.256 36.378 21.378 L 37.256 20.500 36.378 21.378 "/></g>
</svg>
