<?xml version="1.0" encoding="utf-8"?>
<!DOCTYPE svg PUBLIC "-//W3C//DTD SVG 20010904//EN" "http://www.w3.org/TR/2001/REC-SVG-20010904/DTD/svg10.dtd">
<svg version="1.0" xmlns="http://www.w3.org/2000/svg" width="66pt" height="54pt" viewBox="0 0 66 54" style="" preserveAspectRatio="xMidYMid meet">
<g fill="#4874CBFF" stroke="#4874CBFF">
<path d="M 24.287 1.955 C 15.803 3.285 13.113 5.468 10.067 13.495 C 8.181 18.462 6.845 20.588 5.456 20.829 C 1.455 21.524 -0.437 26.391 2.950 27.277 C 4.775 27.754 4.862 28.454 4.310 38.198 C 3.540 51.805 4.211 53.212 11.279 52.800 C 16.152 52.516 16.485 52.321 17.369 49.225 L 18.304 45.950 33.393 46.225 L 48.483 46.500 48.996 49.500 C 49.475 52.292 49.845 52.521 54.333 52.808 C 61.740 53.281 62.129 52.577 61.927 39.086 C 61.778 29.109 61.979 27.455 63.377 27.177 C 66.568 26.541 64.279 21.478 60.503 20.821 C 59.062 20.571 57.864 18.673 56.202 14.009 C 54.934 10.453 53.218 6.793 52.387 5.875 C 49.412 2.588 33.983 0.435 24.287 1.955 M 48.451 8.960 C 49.226 9.602 50.753 12.772 51.844 16.003 L 53.828 21.878 48.164 22.689 C 40.872 23.733 25.108 23.730 17.789 22.683 L 12.078 21.866 14.172 16.183 C 16.679 9.379 17.475 8.271 20.323 7.628 C 24.461 6.694 47.007 7.761 48.451 8.960 M 15.500 32.000 C 22.616 35.050 19.818 38.126 11.369 36.541 C 8.709 36.042 8.000 35.428 8.000 33.621 C 8.000 29.433 9.005 29.216 15.500 32.000 M 58.000 32.955 C 58.000 35.518 57.554 35.993 54.631 36.541 C 46.151 38.132 43.623 34.925 51.000 31.936 C 57.218 29.415 58.000 29.529 58.000 32.955 "/></g>
</svg>
