<?xml version="1.0" encoding="utf-8"?>
<!DOCTYPE svg PUBLIC "-//W3C//DTD SVG 20010904//EN" "http://www.w3.org/TR/2001/REC-SVG-20010904/DTD/svg10.dtd">
<svg version="1.0" xmlns="http://www.w3.org/2000/svg" width="66pt" height="61pt" viewBox="0 0 66 61" style="" preserveAspectRatio="xMidYMid meet">
<g fill="#4874CBFF" stroke="#4874CBFF">
<path d="M 28.448 14.399 C 27.350 15.168 24.887 18.092 22.976 20.897 C 21.064 23.701 19.163 25.997 18.750 25.998 C 18.338 25.999 18.000 26.670 18.000 27.489 C 18.000 29.381 14.900 33.056 13.851 32.408 C 12.949 31.851 7.132 34.666 5.549 36.425 C 0.610 41.916 0.209 49.108 4.520 54.908 C 6.900 58.109 8.306 59.029 11.500 59.471 C 16.745 60.196 18.079 59.889 22.335 56.973 C 25.854 54.561 27.210 51.892 27.402 47.000 C 27.512 44.192 30.466 41.327 31.510 43.015 C 31.862 43.586 32.004 45.723 31.825 47.764 C 31.549 50.914 31.803 51.477 33.500 51.488 C 35.380 51.499 38.115 49.720 38.036 48.536 C 37.600 41.994 38.185 38.971 40.086 37.954 C 42.648 36.583 43.789 37.504 42.365 39.795 C 41.782 40.733 41.286 43.968 41.262 46.985 C 41.223 51.999 41.525 52.759 44.769 55.819 C 47.922 58.792 48.811 59.118 52.705 58.729 C 60.661 57.935 66.841 48.246 63.788 41.354 C 63.092 39.784 62.068 38.031 61.512 37.458 C 60.394 36.306 54.076 33.534 52.500 33.504 C 51.950 33.493 51.451 32.363 51.392 30.992 C 51.164 25.765 50.982 24.685 50.423 25.244 C 50.106 25.561 48.594 24.511 47.065 22.910 C 45.535 21.310 43.770 20.000 43.142 20.000 C 42.514 20.000 42.000 19.559 42.000 19.019 C 42.000 18.480 40.810 17.739 39.355 17.374 C 37.901 17.009 35.876 15.876 34.855 14.855 C 32.636 12.636 31.119 12.528 28.448 14.399 M 18.261 36.400 C 19.820 37.584 19.849 37.880 18.511 38.991 C 17.680 39.681 17.000 40.827 17.000 41.539 C 17.000 42.251 16.583 42.983 16.074 43.167 C 15.565 43.350 14.836 44.756 14.455 46.291 L 13.763 49.082 18.830 47.157 C 21.617 46.098 24.146 45.479 24.449 45.782 C 24.752 46.085 25.000 47.508 25.000 48.944 C 25.000 56.915 13.512 60.651 6.832 54.853 C 4.886 53.163 4.505 51.878 4.532 47.086 C 4.559 42.278 4.982 40.927 7.135 38.774 C 10.850 35.059 15.255 34.119 18.261 36.400 M 50.421 40.072 C 50.665 41.958 50.895 44.314 50.933 45.309 C 50.970 46.304 51.385 46.880 51.856 46.589 C 52.327 46.298 52.495 43.796 52.229 41.030 C 51.661 35.115 52.619 34.697 58.142 38.450 C 62.492 41.406 63.302 44.608 61.001 49.748 C 57.956 56.551 49.279 58.656 45.090 53.609 C 44.360 52.729 43.704 49.493 43.632 46.418 C 43.515 41.423 43.807 40.563 46.366 38.362 C 47.942 37.006 49.399 36.066 49.604 36.271 C 49.810 36.476 50.178 38.187 50.421 40.072 M 38.763 21.750 C 39.901 22.713 41.775 24.288 42.927 25.250 C 44.080 26.213 46.068 27.000 47.344 27.000 C 48.987 27.000 49.626 27.542 49.529 28.852 C 49.406 30.530 48.503 30.686 39.946 30.509 C 28.390 30.270 28.000 30.223 28.000 29.093 C 28.000 28.099 35.134 20.133 36.097 20.051 C 36.425 20.023 37.625 20.788 38.763 21.750 M 46.000 32.870 C 46.000 33.349 43.978 34.306 41.507 34.998 C 37.865 36.018 36.719 36.012 35.459 34.966 C 34.219 33.937 34.167 33.511 35.203 32.854 C 36.937 31.753 46.000 31.767 46.000 32.870 M 27.795 36.821 L 31.091 39.638 28.457 40.838 C 26.119 41.903 25.763 41.811 25.295 40.019 C 25.004 38.909 24.369 38.000 23.883 38.000 C 23.398 38.000 23.000 37.100 23.000 36.000 C 23.000 33.326 23.883 33.478 27.795 36.821 M 24.000 43.191 C 24.000 43.636 23.127 44.000 22.059 44.000 C 20.991 44.000 19.835 44.457 19.490 45.016 C 19.144 45.575 18.435 45.769 17.913 45.446 C 17.385 45.120 17.933 43.498 19.146 41.794 C 21.200 38.911 21.408 38.837 22.664 40.556 C 23.399 41.560 24.000 42.746 24.000 43.191 M 21.000 33.000 C 22.219 33.788 22.090 33.972 20.309 33.985 C 19.104 33.993 17.840 33.550 17.500 33.000 C 16.713 31.727 19.030 31.727 21.000 33.000 "/></g>
<g fill="#4874CBFF" stroke="#4874CBFF">
<path d="M 34.250 2.662 C 32.610 3.324 32.651 7.141 34.323 9.427 C 35.345 10.825 36.369 11.078 38.823 10.539 C 40.570 10.155 42.052 9.314 42.115 8.671 C 42.179 8.027 42.298 6.825 42.381 6.000 C 42.718 2.642 38.545 0.929 34.250 2.662 "/></g>
<g fill="#4874CBFF" stroke="#4874CBFF">
<path d="M 31.379 53.713 C 32.335 54.668 40.998 54.702 40.999 53.750 C 41.000 53.338 38.675 53.000 35.833 53.000 C 32.992 53.000 30.987 53.321 31.379 53.713 "/></g>
<g fill="#7697D8FF" stroke="#7697D8FF">
<path d="M 40.750 32.919 C 43.638 33.269 46.000 33.206 46.000 32.778 C 46.000 32.350 43.638 32.063 40.750 32.141 L 35.500 32.282 40.750 32.919 "/></g>
<g fill="#7697D8FF" stroke="#7697D8FF">
<path d="M 32.480 52.033 C 32.131 52.597 33.641 53.000 36.108 53.000 C 40.906 53.000 40.966 52.566 36.289 51.676 C 34.523 51.340 32.809 51.501 32.480 52.033 "/></g>
<g fill="#7697D8FF" stroke="#7697D8FF">
<path d="M 5.000 56.000 L 7.000 58.000 5.000 56.000 L 3.000 54.000 5.000 56.000 "/></g>
<g fill="#7697D8FF" stroke="#7697D8FF">
<path d="M 17.687 33.087 C 18.470 33.870 18.962 33.870 19.446 33.087 C 19.833 32.462 19.371 32.000 18.359 32.000 C 17.092 32.000 16.904 32.304 17.687 33.087 "/></g>
<g fill="#7697D8FF" stroke="#7697D8FF">
<path d="M 51.063 31.191 C 51.029 32.121 51.444 33.156 51.987 33.492 C 52.626 33.887 52.648 33.292 52.050 31.801 C 51.395 30.167 51.108 29.991 51.063 31.191 "/></g>
<g fill="#7697D8FF" stroke="#7697D8FF">
<path d="M 22.378 54.378 L 21.500 55.256 22.378 54.378 L 23.256 53.500 22.378 54.378 "/></g>
<g fill="#7697D8FF" stroke="#7697D8FF">
<path d="M 35.500 34.500 L 37.000 36.000 35.500 34.500 L 34.000 33.000 35.500 34.500 "/></g>
</svg>
