<svg xmlns="http://www.w3.org/2000/svg" xmlns:xlink="http://www.w3.org/1999/xlink" width="28" height="30.12469482421875" viewBox="0 0 28 30.12469482421875" fill="none"><path  id="拼合图形" style="fill:#000000; opacity:1;" d="M13.7556 11.0654L8.08795 15.8378L7.7659 15.4554L8.06485 15.0546L13.7325 19.2822L13.4336 19.683L13.1311 19.2848L18.6973 15.0572L18.9997 15.4554L18.6743 15.8349L13.1081 11.0625L13.4336 10.683L13.7556 11.0654ZM13.4365 10.0268L19.7953 15.4789L13.4363 20.3088L6.96145 15.4791L13.1115 10.3005L13.4365 10.0268ZM12.9336 10.6773L13.0005 4.76816L13.0068 4.73015L13.0005 4.76816L13.0068 4.73015Q13.4098 2.31235 15.5 2.31235L22.0121 2.31235L27.5 2.31235L27.5 3.31235L22.0121 3.31235L15.5 3.31235Q14.2569 3.31235 13.9932 4.89455L13.5 4.81235L13.9932 4.89455L13.5 4.81235L14 4.81801L13.9335 10.6886L12.9336 10.6773ZM7.7659 15.9554L1.84204e-07 15.9554L-1.84204e-07 14.9554L7.7659 14.9554L7.7659 15.9554ZM7.35016 15.7331L5.58426 13.0901L6.41574 12.5346L8.18164 15.1776L7.35016 15.7331ZM8.19121 15.7182L6.42531 18.5752L5.57469 18.0495L7.34059 15.1925L8.19121 15.7182ZM13.9335 19.6775L14 25.8069L13.5 25.8123L13.9903 25.7143L13.5 25.8123L13.9903 25.7143Q14.2099 26.8123 15.5 26.8123L22.0121 26.8123L27.5 26.8123L27.5 27.8123L22.0121 27.8123L15.5 27.8123Q13.3901 27.8123 13.0097 25.9104L13.0005 25.8645L13.0097 25.9104L13.0005 25.8645L12.9336 19.6884L13.9335 19.6775ZM27.916 3.0897L25.916 6.0897L25.084 5.535L27.084 2.535L27.916 3.0897ZM27.1096 3.12469L25.1096 0.624695L25.8904 -1.19209e-07L27.8904 2.5L27.1096 3.12469ZM27.5 2.31235L28 2.31235L28 3.31235L27.5 3.31235L27.5 2.31235ZM27.1096 27.6247L25.1096 25.1247L25.8904 24.5L27.8904 27L27.1096 27.6247ZM27.8904 27.6247L25.8904 30.1247L25.1096 29.5L27.1096 27L27.8904 27.6247ZM27.5 26.8123L28 26.8123L28 27.8123L27.5 27.8123L27.5 26.8123Z"></path></svg>