<svg xmlns="http://www.w3.org/2000/svg" xmlns:xlink="http://www.w3.org/1999/xlink" width="32" height="32" viewBox="0 0 32 32" fill="none"><g opacity="1"  transform="translate(0 0)  rotate(0)"><path id="矩形 1" fill-rule="evenodd" style="fill:#000000" opacity="1" d="M13 29L17 29L17 3L13 3L13 29Z"></path><path  id="路径 1" style="fill:#000000; opacity:1;" d="M17 5.5L27.5 5.5L27.5 6.5L17 6.5L17 5.5ZM27.1877 6.39043L24.6877 4.39043L25.3123 3.60957L27.8123 5.60957L27.1877 6.39043ZM27.8123 6.39043L25.3123 8.39043L24.6877 7.60957L27.1877 5.60957L27.8123 6.39043Z"></path><path  id="路径 2" style="fill:#000000; opacity:1;" d="M17 12.5L27.5 12.5L27.5 13.5L17 13.5L17 12.5ZM27.1877 13.3904L24.6877 11.3904L25.3123 10.6096L27.8123 12.6096L27.1877 13.3904ZM27.8123 13.3904L25.3123 15.3904L24.6877 14.6096L27.1877 12.6096L27.8123 13.3904Z"></path><path  id="路径 2" style="fill:#000000; opacity:1;" d="M3 15.5L13 15.5L13 16.5L3 16.5L3 15.5ZM12.6464 16.3536L10.6464 14.3536L11.3536 13.6464L13.3536 15.6464L12.6464 16.3536ZM13.3536 16.3536L11.3536 18.3536L10.6464 17.6464L12.6464 15.6464L13.3536 16.3536Z"></path><path  id="路径 3" style="fill:#000000; opacity:1;" d="M17 25.5L27.5 25.5L27.5 26.5L17 26.5L17 25.5ZM27.1877 26.3904L24.6877 24.3904L25.3123 23.6096L27.8123 25.6096L27.1877 26.3904ZM27.8123 26.3904L25.3123 28.3904L24.6877 27.6096L27.1877 25.6096L27.8123 26.3904Z"></path><path id="矩形 2" fill-rule="evenodd" style="fill:#000000" opacity="1" d="M18 22L20 22L20 20L18 20L18 22Z"></path><path id="矩形 2" fill-rule="evenodd" style="fill:#000000" opacity="1" d="M24 22L26 22L26 20L24 20L24 22Z"></path><path id="矩形 2" fill-rule="evenodd" style="fill:#000000" opacity="1" d="M21 22L23 22L23 20L21 20L21 22Z"></path></g></svg>