<?xml version="1.0" encoding="utf-8"?>
<!DOCTYPE svg PUBLIC "-//W3C//DTD SVG 20010904//EN" "http://www.w3.org/TR/2001/REC-SVG-20010904/DTD/svg10.dtd">
<svg version="1.0" xmlns="http://www.w3.org/2000/svg" width="66pt" height="66pt" viewBox="0 0 66 66" style="" preserveAspectRatio="xMidYMid meet">
<g fill="#4874CBFF" stroke="#4874CBFF">
<path d="M 21.704 3.853 C 15.650 6.285 13.019 7.989 10.107 11.362 C 9.223 12.385 8.014 13.740 7.419 14.371 C 4.602 17.363 1.494 27.729 1.672 33.542 C 1.828 38.642 2.476 43.500 3.000 43.500 C 3.084 43.500 3.302 44.279 3.485 45.230 C 3.668 46.182 4.533 47.676 5.409 48.551 C 6.284 49.427 7.000 50.531 7.000 51.005 C 7.000 51.479 9.116 53.923 11.702 56.437 C 17.646 62.214 24.310 64.767 33.000 64.597 C 42.616 64.409 48.799 61.880 55.315 55.466 C 62.326 48.566 64.892 42.251 64.443 33.000 C 64.170 27.377 63.500 22.500 63.000 22.500 C 62.916 22.500 62.698 21.721 62.515 20.770 C 62.332 19.818 61.467 18.324 60.591 17.449 C 59.716 16.573 58.999 15.552 58.999 15.179 C 58.996 13.789 54.369 9.233 50.500 6.811 C 41.293 1.048 31.251 0.016 21.704 3.853 M 44.124 7.252 C 49.151 9.389 56.362 16.627 58.782 21.964 C 61.726 28.459 61.242 43.558 58.011 46.000 C 57.647 46.275 56.483 47.996 55.425 49.824 C 54.340 51.697 50.881 54.744 47.500 56.804 C 42.157 60.059 40.675 60.484 33.967 60.681 C 27.930 60.859 25.545 60.468 21.967 58.712 C 14.747 55.169 8.302 47.921 6.216 41.000 C 5.149 37.460 5.423 27.181 6.683 23.450 C 7.977 19.622 15.723 10.000 17.512 10.000 C 17.969 10.000 19.053 9.384 19.921 8.630 C 24.051 5.048 37.181 4.301 44.124 7.252 "/></g>
<g fill="#4874CBFF" stroke="#4874CBFF">
<path d="M 30.000 33.000 C 30.000 37.667 30.417 41.000 31.000 41.000 C 31.550 41.000 32.000 39.708 32.000 38.128 C 32.000 35.565 32.418 35.189 35.882 34.635 C 39.059 34.127 39.855 33.537 40.266 31.391 C 40.953 27.796 37.993 25.000 33.500 25.000 L 30.000 25.000 30.000 33.000 M 36.895 28.373 C 38.565 30.386 37.151 33.000 34.393 33.000 C 32.401 33.000 32.000 32.498 32.000 30.000 C 32.000 27.732 32.458 27.000 33.878 27.000 C 34.910 27.000 36.268 27.618 36.895 28.373 "/></g>
<g fill="#4874CBFF" stroke="#4874CBFF">
<path d="M 17.500 26.190 C 14.414 28.011 13.528 29.263 13.171 32.305 C 12.520 37.865 17.973 42.554 23.750 41.401 C 26.248 40.902 26.489 40.469 26.385 36.676 C 26.273 32.611 26.193 32.517 23.385 33.132 C 21.798 33.479 21.288 33.817 22.250 33.882 C 23.418 33.961 24.000 34.831 24.000 36.500 C 24.000 38.519 23.505 39.000 21.429 39.000 C 18.065 39.000 15.996 36.830 16.015 33.321 C 16.038 29.178 17.204 27.976 21.579 27.583 C 23.736 27.390 25.500 26.842 25.500 26.366 C 25.500 25.008 19.719 24.881 17.500 26.190 "/></g>
<g fill="#4874CBFF" stroke="#4874CBFF">
<path d="M 44.481 26.288 C 43.920 26.955 43.526 28.063 43.606 28.750 C 43.685 29.438 43.806 30.675 43.875 31.500 C 43.944 32.325 44.625 33.000 45.389 33.000 C 46.153 33.000 47.841 33.891 49.139 34.980 C 51.163 36.676 51.286 37.109 50.000 38.007 C 49.175 38.583 47.263 38.828 45.750 38.552 C 43.815 38.199 43.000 38.467 43.000 39.458 C 43.000 42.779 51.228 42.311 53.062 38.885 C 54.433 36.323 52.818 33.528 48.989 31.839 C 45.057 30.105 45.481 27.600 49.777 27.185 C 51.571 27.012 52.778 26.450 52.460 25.935 C 51.629 24.591 45.687 24.854 44.481 26.288 "/></g>
<g fill="#7697D8FF" stroke="#7697D8FF">
<path d="M 23.750 32.720 C 25.514 33.044 26.043 33.874 26.200 36.566 C 26.385 39.738 26.404 39.714 26.450 36.250 C 26.494 32.928 26.215 32.489 24.000 32.404 C 21.825 32.320 21.792 32.361 23.750 32.720 "/></g>
<g fill="#7697D8FF" stroke="#7697D8FF">
<path d="M 55.000 55.888 L 53.500 57.563 55.000 55.888 L 56.500 54.212 55.000 55.888 "/></g>
<g fill="#7697D8FF" stroke="#7697D8FF">
<path d="M 10.500 55.500 L 12.000 57.000 10.500 55.500 L 9.000 54.000 10.500 55.500 "/></g>
</svg>
