<?xml version="1.0" encoding="utf-8"?>
<!DOCTYPE svg PUBLIC "-//W3C//DTD SVG 20010904//EN" "http://www.w3.org/TR/2001/REC-SVG-20010904/DTD/svg10.dtd">
<svg version="1.0" xmlns="http://www.w3.org/2000/svg" width="66pt" height="66pt" viewBox="0 0 66 66" style="" preserveAspectRatio="xMidYMid meet">
<g fill="#4874CBFF" stroke="#4874CBFF">
<path d="M 6.917 6.782 C 2.447 10.777 1.943 16.580 5.339 24.986 C 7.292 29.823 7.654 31.778 6.868 33.247 C 5.602 35.612 6.457 36.696 8.349 35.125 C 9.455 34.207 10.073 34.462 11.304 36.342 C 17.455 45.729 29.984 56.663 40.000 61.384 C 45.080 63.779 47.884 64.454 52.834 64.474 C 58.546 64.497 59.406 64.225 61.577 61.703 C 62.902 60.164 64.275 57.753 64.628 56.346 C 65.294 53.694 63.644 44.608 62.030 42.029 C 60.190 39.091 59.920 41.916 61.515 47.403 C 67.335 67.425 45.761 67.662 24.503 47.809 C 15.096 39.025 10.612 32.798 11.554 29.829 C 12.079 28.176 11.887 27.829 10.699 28.285 C 8.880 28.983 6.264 23.206 5.338 16.448 C 4.799 12.518 5.046 11.800 7.928 8.918 C 10.912 5.934 11.453 5.767 16.445 6.282 C 19.376 6.585 23.207 7.573 24.958 8.478 C 27.556 9.822 27.922 10.389 26.948 11.562 C 26.006 12.698 26.054 13.000 27.178 13.000 C 27.960 13.000 29.043 12.557 29.585 12.015 C 30.650 10.950 38.996 16.067 42.405 19.873 C 44.306 21.995 44.303 22.000 41.155 22.000 C 39.420 22.000 38.000 22.450 38.000 23.000 C 38.000 23.550 40.475 24.000 43.500 24.000 L 49.000 24.000 49.000 18.500 C 49.000 15.475 48.550 13.000 48.000 13.000 C 47.450 13.000 47.000 14.575 47.000 16.500 C 47.000 20.669 46.160 20.863 42.941 17.438 C 41.617 16.028 39.064 13.967 37.267 12.856 C 35.470 11.745 34.000 10.052 34.000 9.093 C 34.000 7.798 33.164 7.343 30.750 7.324 C 28.963 7.309 25.700 6.575 23.500 5.693 C 21.300 4.810 17.370 4.068 14.766 4.044 C 10.964 4.009 9.418 4.548 6.917 6.782 "/></g>
<g fill="#4874CBFF" stroke="#4874CBFF">
<path d="M 43.000 41.000 L 43.000 46.000 48.559 46.000 C 52.010 46.000 53.884 45.621 53.500 45.000 C 53.160 44.450 51.503 44.000 49.819 44.000 C 47.187 44.000 46.934 43.785 48.020 42.476 C 49.663 40.497 48.503 39.337 46.524 40.980 C 45.214 42.067 45.000 41.807 45.000 39.122 C 45.000 37.405 44.550 36.000 44.000 36.000 C 43.450 36.000 43.000 38.250 43.000 41.000 "/></g>
<g fill="#A3B9E5FF" stroke="#A3B9E5FF">
<path d="M 42.406 36.386 C 42.113 37.148 42.015 39.735 42.187 42.136 L 42.500 46.500 47.750 46.462 L 53.000 46.423 48.000 46.212 L 43.000 46.000 43.000 41.083 C 43.000 38.086 43.488 35.970 44.250 35.662 C 45.229 35.267 45.222 35.141 44.219 35.079 C 43.514 35.036 42.698 35.624 42.406 36.386 "/></g>
<g fill="#4874CBFF" stroke="#4874CBFF">
<path d="M 43.500 2.414 C 41.300 3.046 39.613 3.887 39.750 4.282 C 40.072 5.207 40.336 5.215 44.519 4.430 C 48.012 3.775 49.720 2.531 48.266 1.701 C 47.845 1.460 45.700 1.781 43.500 2.414 "/></g>
<g fill="#4874CBFF" stroke="#4874CBFF">
<path d="M 2.660 42.750 C 1.277 47.853 1.058 50.000 1.922 50.000 C 3.217 50.000 3.620 49.153 4.414 44.750 C 5.092 40.992 3.599 39.289 2.660 42.750 "/></g>
<g fill="#4874CBFF" stroke="#4874CBFF">
<path d="M 18.068 19.421 C 16.181 21.373 14.948 23.281 15.329 23.662 C 16.311 24.645 22.121 18.843 21.781 17.219 C 21.604 16.368 20.236 17.179 18.068 19.421 "/></g>
<g fill="#4874CBFF" stroke="#4874CBFF">
<path d="M 60.053 17.750 C 58.765 22.385 58.754 23.000 59.953 23.000 C 60.477 23.000 61.375 21.313 61.947 19.250 C 63.235 14.615 63.246 14.000 62.047 14.000 C 61.523 14.000 60.625 15.688 60.053 17.750 "/></g>
<g fill="#4874CBFF" stroke="#4874CBFF">
<path d="M 20.250 58.347 C 18.463 58.934 17.000 59.968 17.000 60.646 C 17.000 61.578 18.097 61.505 21.501 60.345 C 23.976 59.502 25.750 58.404 25.442 57.906 C 24.807 56.879 24.697 56.888 20.250 58.347 "/></g>
<g fill="#4874CBFF" stroke="#4874CBFF">
<path d="M 3.000 56.762 C 3.000 58.100 6.128 60.650 8.750 61.449 C 12.050 62.455 11.481 60.801 7.744 58.524 C 3.289 55.811 3.000 55.704 3.000 56.762 "/></g>
<g fill="#4874CBFF" stroke="#4874CBFF">
<path d="M 54.068 30.904 C 52.931 32.502 52.000 34.302 52.000 34.904 C 52.000 37.150 53.701 35.876 55.880 32.000 C 58.471 27.390 57.143 26.587 54.068 30.904 "/></g>
<g fill="#4874CBFF" stroke="#4874CBFF">
<path d="M 57.038 4.959 C 60.590 7.996 62.000 8.625 62.000 7.174 C 62.000 5.653 57.393 2.000 55.473 2.000 C 53.962 2.000 54.281 2.603 57.038 4.959 "/></g>
<g fill="#A3B9E5FF" stroke="#A3B9E5FF">
<path d="M 46.160 16.372 C 46.016 18.958 45.825 19.108 44.250 17.872 C 42.664 16.629 42.629 16.664 43.872 18.250 C 45.991 20.951 47.168 20.332 46.723 16.750 C 46.336 13.631 46.314 13.616 46.160 16.372 "/></g>
<g fill="#A3B9E5FF" stroke="#A3B9E5FF">
<path d="M 18.500 18.410 L 16.500 20.567 18.500 18.410 L 20.500 16.253 18.500 18.410 "/></g>
<g fill="#A3B9E5FF" stroke="#A3B9E5FF">
<path d="M 23.500 50.500 L 25.000 52.000 23.500 50.500 L 22.000 49.000 23.500 50.500 "/></g>
<g fill="#A3B9E5FF" stroke="#A3B9E5FF">
<path d="M 18.500 45.500 L 20.000 47.000 18.500 45.500 L 17.000 44.000 18.500 45.500 "/></g>
</svg>
