<svg xmlns="http://www.w3.org/2000/svg" xmlns:xlink="http://www.w3.org/1999/xlink" width="32" height="32" viewBox="0 0 32 32" fill="none"><g opacity="1"  transform="translate(0 0)  rotate(0)"><path id="矩形 1" fill-rule="evenodd" style="fill:#000000" opacity="1" d="M13 29L17 29L17 3L13 3L13 29Z"></path><path  id="路径 1" style="fill:#000000; opacity:1;" d="M2 5.5L12.5 5.5L12.5 6.5L2 6.5L2 5.5ZM12.1877 6.39043L9.68765 4.39043L10.3123 3.60957L12.8123 5.60957L12.1877 6.39043ZM12.8123 6.39043L10.3123 8.39043L9.68765 7.60957L12.1877 5.60957L12.8123 6.39043Z"></path><path  id="路径 2" style="fill:#000000; opacity:1;" d="M2 12.5L12.5 12.5L12.5 13.5L2 13.5L2 12.5ZM12.1877 13.3904L9.68765 11.3904L10.3123 10.6096L12.8123 12.6096L12.1877 13.3904ZM12.8123 13.3904L10.3123 15.3904L9.68765 14.6096L12.1877 12.6096L12.8123 13.3904Z"></path><path  id="路径 2" style="fill:#000000; opacity:1;" d="M17 15.5L29 15.5L29 16.5L17 16.5L17 15.5ZM28.6464 16.3536L26.6464 14.3536L27.3536 13.6464L29.3536 15.6464L28.6464 16.3536ZM29.3536 16.3536L27.3536 18.3536L26.6464 17.6464L28.6464 15.6464L29.3536 16.3536Z"></path><path  id="路径 3" style="fill:#000000; opacity:1;" d="M2 25.5L12.5 25.5L12.5 26.5L2 26.5L2 25.5ZM12.1877 26.3904L9.68765 24.3904L10.3123 23.6096L12.8123 25.6096L12.1877 26.3904ZM12.8123 26.3904L10.3123 28.3904L9.68765 27.6096L12.1877 25.6096L12.8123 26.3904Z"></path><path id="矩形 2" fill-rule="evenodd" style="fill:#000000" opacity="1" d="M3 22L5 22L5 20L3 20L3 22Z"></path><path id="矩形 2" fill-rule="evenodd" style="fill:#000000" opacity="1" d="M9 22L11 22L11 20L9 20L9 22Z"></path><path id="矩形 2" fill-rule="evenodd" style="fill:#000000" opacity="1" d="M6 22L8 22L8 20L6 20L6 22Z"></path></g></svg>