<?xml version="1.0" encoding="utf-8"?>
<!DOCTYPE svg PUBLIC "-//W3C//DTD SVG 20010904//EN" "http://www.w3.org/TR/2001/REC-SVG-20010904/DTD/svg10.dtd">
<svg version="1.0" xmlns="http://www.w3.org/2000/svg" width="66pt" height="52pt" viewBox="0 0 66 52" style="" preserveAspectRatio="xMidYMid meet">
<g fill="#4874CBFF" stroke="#4874CBFF">
<path d="M 13.521 2.250 C 13.293 2.938 10.592 13.400 7.519 25.500 C 4.446 37.600 1.692 48.288 1.399 49.250 C 0.931 50.783 1.618 51.000 6.933 51.000 C 10.270 51.000 13.000 50.758 13.000 50.462 C 13.000 50.166 15.025 39.109 17.500 25.891 C 19.975 12.673 22.000 1.665 22.000 1.429 C 22.000 0.343 13.895 1.128 13.521 2.250 "/></g>
<g fill="#4874CBFF" stroke="#4874CBFF">
<path d="M 44.324 2.688 C 44.598 3.685 46.743 14.963 49.091 27.750 L 53.360 51.000 59.199 51.000 L 65.038 51.000 64.359 48.250 C 63.986 46.738 61.153 35.600 58.064 23.500 L 52.448 1.500 48.137 1.188 C 44.384 0.917 43.890 1.111 44.324 2.688 "/></g>
<g fill="#4874CBFF" stroke="#4874CBFF">
<path d="M 23.000 1.857 C 23.000 2.678 15.630 42.540 14.423 48.250 C 13.992 50.286 14.230 51.000 15.341 51.000 C 16.175 51.000 17.089 49.779 17.400 48.250 C 18.534 42.672 26.000 2.169 26.000 1.595 C 26.000 1.268 25.325 1.000 24.500 1.000 C 23.675 1.000 23.000 1.386 23.000 1.857 "/></g>
<g fill="#4874CBFF" stroke="#4874CBFF">
<path d="M 40.439 3.750 C 41.462 8.448 49.000 49.348 49.000 50.197 C 49.000 50.639 49.675 51.000 50.500 51.000 C 51.325 51.000 52.000 50.732 52.000 50.405 C 52.000 49.831 44.534 9.328 43.400 3.750 C 43.089 2.221 42.175 1.000 41.341 1.000 C 40.226 1.000 39.995 1.706 40.439 3.750 "/></g>
<g fill="#4874CBFF" stroke="#4874CBFF">
<path d="M 29.714 44.619 C 29.321 45.012 29.000 46.608 29.000 48.167 C 29.000 50.813 29.268 51.000 33.063 51.000 C 37.045 51.000 37.120 50.935 36.813 47.750 C 36.543 44.946 36.084 44.459 33.464 44.203 C 31.794 44.039 30.107 44.227 29.714 44.619 "/></g>
<g fill="#4874CBFF" stroke="#4874CBFF">
<path d="M 30.000 33.500 C 30.000 36.722 30.238 37.000 33.000 37.000 C 35.762 37.000 36.000 36.722 36.000 33.500 C 36.000 30.278 35.762 30.000 33.000 30.000 C 30.238 30.000 30.000 30.278 30.000 33.500 "/></g>
<g fill="#4874CBFF" stroke="#4874CBFF">
<path d="M 31.000 19.500 C 31.000 22.605 31.294 23.000 33.607 23.000 C 35.573 23.000 36.065 22.611 35.607 21.418 C 35.273 20.548 35.000 18.973 35.000 17.918 C 35.000 16.667 34.305 16.000 33.000 16.000 C 31.381 16.000 31.000 16.667 31.000 19.500 "/></g>
<g fill="#4874CBFF" stroke="#4874CBFF">
<path d="M 31.850 3.500 C 31.768 4.875 31.655 6.556 31.600 7.236 C 31.545 7.916 32.288 8.624 33.250 8.810 C 34.539 9.058 35.000 8.490 35.000 6.655 C 35.000 1.440 32.145 -1.420 31.850 3.500 "/></g>
</svg>
