<?xml version="1.0" encoding="utf-8"?>
<!DOCTYPE svg PUBLIC "-//W3C//DTD SVG 20010904//EN" "http://www.w3.org/TR/2001/REC-SVG-20010904/DTD/svg10.dtd">
<svg version="1.0" xmlns="http://www.w3.org/2000/svg" width="66pt" height="64pt" viewBox="0 0 66 64" style="" preserveAspectRatio="xMidYMid meet">
<g fill="#4874CBFF" stroke="#4874CBFF">
<path d="M 30.148 19.145 C 27.541 19.896 26.448 20.994 25.233 24.090 C 24.156 26.832 23.348 27.748 22.635 27.035 C 21.081 25.481 18.000 25.790 18.000 27.500 C 18.000 28.326 18.886 29.000 19.970 29.000 C 21.561 29.000 21.907 29.625 21.768 32.250 C 21.674 34.038 21.687 37.863 21.798 40.750 C 21.995 45.872 22.073 46.000 25.000 46.000 C 27.667 46.000 28.000 45.667 28.000 43.000 L 28.000 40.000 41.500 40.000 L 55.000 40.000 55.000 43.000 C 55.000 45.667 55.333 46.000 58.000 46.000 C 60.927 46.000 61.005 45.872 61.202 40.750 C 61.313 37.863 61.326 34.038 61.232 32.250 C 61.093 29.625 61.439 29.000 63.030 29.000 C 64.114 29.000 65.000 28.326 65.000 27.500 C 65.000 25.790 61.919 25.481 60.365 27.035 C 59.652 27.748 58.847 26.839 57.776 24.112 C 56.499 20.860 55.534 19.964 52.361 19.083 C 47.676 17.782 34.757 17.818 30.148 19.145 M 51.817 20.613 C 54.070 21.064 55.164 22.031 55.942 24.263 C 56.524 25.932 57.000 27.681 57.000 28.149 C 57.000 28.617 49.977 29.000 41.393 29.000 C 27.526 29.000 25.854 28.822 26.397 27.407 C 26.733 26.531 27.274 24.757 27.598 23.464 C 27.934 22.125 29.115 20.933 30.344 20.693 C 33.865 20.006 48.506 19.951 51.817 20.613 M 57.000 35.000 C 57.000 36.667 56.333 37.000 53.000 37.000 C 50.333 37.000 49.000 36.556 49.000 35.667 C 49.000 33.601 50.052 33.000 53.667 33.000 C 56.333 33.000 57.000 33.400 57.000 35.000 M 33.815 35.250 C 34.087 36.685 33.412 37.000 30.073 37.000 C 26.627 37.000 26.000 36.683 26.000 34.940 C 26.000 33.171 26.530 32.923 29.742 33.190 C 32.357 33.407 33.583 34.027 33.815 35.250 "/></g>
<g fill="#4874CBFF" stroke="#4874CBFF">
<path d="M 32.517 44.924 C 32.164 46.532 30.151 50.308 28.045 53.315 L 24.215 58.783 26.857 60.722 L 29.500 62.662 31.748 59.926 C 34.217 56.919 39.998 45.237 39.999 43.250 C 40.000 42.493 38.650 42.000 36.579 42.000 C 33.612 42.000 33.074 42.387 32.517 44.924 "/></g>
<g fill="#4874CBFF" stroke="#4874CBFF">
<path d="M 3.988 23.513 C 2.166 25.452 1.898 26.298 2.813 27.213 C 4.509 28.909 4.279 35.034 2.443 37.063 C 1.016 38.640 1.136 38.961 3.897 40.927 L 6.908 43.070 8.578 40.521 C 11.328 36.325 11.539 29.978 9.090 25.176 C 7.918 22.879 6.822 21.000 6.654 21.000 C 6.486 21.000 5.286 22.131 3.988 23.513 "/></g>
<g fill="#4874CBFF" stroke="#4874CBFF">
<path d="M 26.549 3.946 C 24.855 5.818 24.913 6.086 28.062 10.946 C 30.917 15.351 31.764 16.000 34.668 16.000 C 36.501 16.000 38.000 15.753 38.000 15.450 C 38.000 13.322 30.455 2.000 29.036 2.000 C 28.637 2.000 27.517 2.876 26.549 3.946 "/></g>
<g fill="#4874CBFF" stroke="#4874CBFF">
<path d="M 15.015 13.787 L 12.809 15.573 15.154 19.244 C 16.883 21.949 18.208 22.926 20.191 22.958 C 24.146 23.020 24.466 21.472 21.535 16.470 C 18.597 11.456 18.131 11.264 15.015 13.787 "/></g>
<g fill="#4874CBFF" stroke="#4874CBFF">
<path d="M 18.125 40.018 C 18.056 40.853 16.898 43.158 15.550 45.141 L 13.101 48.746 15.381 50.888 C 17.640 53.011 17.679 53.012 19.429 51.079 C 20.513 49.881 20.882 48.618 20.383 47.813 C 19.936 47.091 19.273 44.700 18.910 42.500 C 18.547 40.300 18.194 39.183 18.125 40.018 "/></g>
<g fill="#A3B9E5FF" stroke="#A3B9E5FF">
<path d="M 61.212 41.000 C 61.009 45.794 60.876 46.008 58.000 46.194 C 55.252 46.373 55.273 46.394 58.250 46.444 L 61.500 46.500 61.462 41.250 L 61.423 36.000 61.212 41.000 "/></g>
<g fill="#A3B9E5FF" stroke="#A3B9E5FF">
<path d="M 18.952 36.894 C 18.650 37.661 18.720 40.136 19.107 42.394 C 19.764 46.223 19.800 46.129 19.655 41.000 C 19.570 37.975 19.253 36.127 18.952 36.894 "/></g>
<g fill="#A3B9E5FF" stroke="#A3B9E5FF">
<path d="M 20.500 23.123 L 17.500 23.763 20.250 23.882 C 21.763 23.947 23.113 23.658 23.250 23.241 C 23.388 22.824 22.150 22.770 20.500 23.123 "/></g>
<g fill="#A3B9E5FF" stroke="#A3B9E5FF">
<path d="M 24.660 4.750 C 24.232 5.438 24.232 6.563 24.660 7.250 C 25.156 8.047 25.437 7.595 25.437 6.000 C 25.437 4.405 25.156 3.953 24.660 4.750 "/></g>
<g fill="#A3B9E5FF" stroke="#A3B9E5FF">
<path d="M 2.378 24.378 L 1.500 25.256 2.378 24.378 L 3.256 23.500 2.378 24.378 "/></g>
</svg>
