<svg xmlns="http://www.w3.org/2000/svg" xmlns:xlink="http://www.w3.org/1999/xlink" width="32" height="32" viewBox="0 0 32 32" fill="none"><g opacity="1"  transform="translate(0 0)  rotate(0)"><path  id="拼合图形" style="fill:#000000; opacity:1;" d="M15.2556 12.2531L9.58795 17.0255L9.2659 16.643L9.56485 16.2422L15.2325 20.4698L14.9336 20.8706L14.6311 20.4724L20.1973 16.2448L20.4997 16.643L20.1743 17.0226L14.6081 12.2502L14.9336 11.8706L15.2556 12.2531ZM14.9365 11.2145L21.2953 16.6666L14.9363 21.4964L8.46145 16.6667L14.6115 11.4881L14.9365 11.2145ZM2 2.5L13.4497 2.5Q15.0129 2.5 15.4264 4.91565L15.4336 4.95752L15.4336 11.8706L14.4336 11.8706L14.4336 5L14.9336 5L14.4407 5.08435Q14.1696 3.5 13.4497 3.5L2 3.5L2 2.5ZM14.6647 12.2922L11.7312 10.4216L12.2688 9.57842L15.2024 11.449L14.6647 12.2922ZM14.6391 11.4665L17.2055 9.59594L17.7945 10.4041L15.2281 12.2747L14.6391 11.4665ZM15.4335 20.8652L15.5007 27.0589L15.4851 27.1213L15.5007 27.0589L15.4851 27.1213Q14.8904 29.5 13.5 29.5L7.1422 29.5L2 29.5L2 28.5L7.1422 28.5L13.5 28.5Q14.1096 28.5 14.5149 26.8787L15 27L14.5149 26.8787L15 27L14.5 27.0054L14.4336 20.876L15.4335 20.8652ZM15.1763 21.3077L12.2428 22.9371L11.7572 22.0629L14.6908 20.4335L15.1763 21.3077ZM15.2016 20.4485L17.768 22.0779L17.232 22.9221L14.6656 21.2927L15.2016 20.4485ZM20.4918 16.1431L29.4921 16.0001L29.5079 16.9999L20.5077 17.143L20.4918 16.1431ZM29.084 16.7774L27.084 13.7774L27.916 13.2226L29.916 16.2226L29.084 16.7774ZM29.916 16.7774L27.916 19.7773L27.084 19.2227L29.084 16.2226L29.916 16.7774Z"></path><path  id="路径 1" style="fill:#000000; opacity:1;" d="M30 17L29 17L29 16L30 16L30 17Z"></path></g></svg>