<?xml version="1.0" encoding="utf-8"?>
<!DOCTYPE svg PUBLIC "-//W3C//DTD SVG 20010904//EN" "http://www.w3.org/TR/2001/REC-SVG-20010904/DTD/svg10.dtd">
<svg version="1.0" xmlns="http://www.w3.org/2000/svg" width="61pt" height="66pt" viewBox="0 0 61 66" style="" preserveAspectRatio="xMidYMid meet">
<g fill="#4874CBFF" stroke="#4874CBFF">
<path d="M 23.248 16.227 C 17.391 19.829 16.727 22.017 19.486 28.620 C 21.611 33.707 23.564 32.504 23.236 26.310 C 22.999 21.843 23.230 21.216 25.486 20.188 C 26.869 19.558 28.000 19.453 28.000 19.954 C 28.000 20.455 27.078 21.158 25.951 21.516 C 24.148 22.088 23.982 22.697 24.566 26.592 C 24.984 29.378 24.809 31.525 24.094 32.386 C 23.470 33.139 23.039 36.172 23.136 39.127 C 23.234 42.082 22.763 46.460 22.090 48.855 C 20.655 53.962 21.178 56.000 23.922 56.000 C 26.245 56.000 27.784 51.714 28.699 42.695 L 29.288 36.890 31.006 39.510 C 32.523 41.821 32.581 42.818 31.503 47.984 C 30.180 54.324 30.720 56.393 33.555 55.847 C 34.788 55.610 35.786 53.894 36.666 50.499 C 38.400 43.807 38.325 41.597 36.215 37.210 C 35.233 35.170 34.587 32.271 34.780 30.768 L 35.129 28.036 37.993 30.153 C 40.727 32.174 44.000 32.145 44.000 30.098 C 44.000 29.568 41.975 27.475 39.500 25.446 C 35.883 22.483 35.000 21.135 35.000 18.580 C 35.000 12.173 31.108 11.394 23.248 16.227 "/></g>
<g fill="#4874CBFF" stroke="#4874CBFF">
<path d="M 45.000 46.238 C 45.000 46.919 46.670 51.419 48.710 56.238 L 52.420 65.000 56.210 65.000 C 58.295 65.000 60.000 64.685 60.000 64.300 C 60.000 63.914 57.241 59.414 53.868 54.300 C 48.330 45.901 45.000 42.874 45.000 46.238 "/></g>
<g fill="#4874CBFF" stroke="#4874CBFF">
<path d="M 7.248 54.280 C 3.809 59.351 0.996 63.838 0.998 64.250 C 0.999 64.663 2.738 65.000 4.863 65.000 L 8.726 65.000 12.378 56.250 C 14.386 51.438 16.023 46.938 16.015 46.250 C 15.977 43.076 12.991 45.810 7.248 54.280 "/></g>
<g fill="#4874CBFF" stroke="#4874CBFF">
<path d="M 39.244 51.765 C 38.633 54.410 38.388 58.471 38.698 60.788 C 39.252 64.914 39.342 65.000 43.132 65.000 C 45.755 65.000 47.000 64.556 47.000 63.619 C 47.000 61.908 42.132 48.785 41.104 47.727 C 40.692 47.302 39.854 49.119 39.244 51.765 "/></g>
<g fill="#4874CBFF" stroke="#4874CBFF">
<path d="M 27.655 2.829 C 25.265 5.470 25.617 8.703 28.500 10.592 C 30.816 12.109 31.184 12.109 33.500 10.592 C 36.374 8.709 36.809 4.952 34.429 2.571 C 32.341 0.484 29.686 0.584 27.655 2.829 "/></g>
<g fill="#4874CBFF" stroke="#4874CBFF">
<path d="M 15.625 58.312 C 13.279 64.455 13.467 65.000 17.934 65.000 C 21.452 65.000 21.901 64.718 22.184 62.326 C 22.398 60.516 21.652 58.749 19.875 56.854 L 17.250 54.056 15.625 58.312 "/></g>
<g fill="#4874CBFF" stroke="#4874CBFF">
<path d="M 27.636 57.788 C 27.397 58.179 27.043 59.850 26.851 61.500 C 26.514 64.379 26.671 64.512 30.750 64.807 C 34.300 65.064 34.997 64.817 34.985 63.307 C 34.976 62.313 34.639 61.041 34.235 60.480 C 33.168 58.999 28.148 56.950 27.636 57.788 "/></g>
</svg>
