<?xml version="1.0" encoding="utf-8"?>
<!DOCTYPE svg PUBLIC "-//W3C//DTD SVG 20010904//EN" "http://www.w3.org/TR/2001/REC-SVG-20010904/DTD/svg10.dtd">
<svg version="1.0" xmlns="http://www.w3.org/2000/svg" width="52pt" height="66pt" viewBox="0 0 52 66" style="" preserveAspectRatio="xMidYMid meet">
<g fill="#4874CBFF" stroke="#4874CBFF">
<path d="M 32.537 14.672 L 25.574 22.309 20.756 16.929 C 16.817 12.532 15.635 11.741 14.278 12.596 C 11.405 14.409 11.751 15.817 15.685 18.316 C 17.783 19.650 20.372 21.715 21.438 22.906 L 23.375 25.072 16.548 31.952 C 11.916 36.620 9.916 39.339 10.327 40.410 C 11.235 42.776 16.892 45.861 21.622 46.571 L 25.810 47.199 21.806 54.621 C 19.604 58.703 18.058 62.709 18.370 63.522 C 18.837 64.738 21.691 65.000 34.500 65.000 C 48.109 65.000 50.143 64.791 50.703 63.332 C 51.055 62.414 50.680 60.501 49.869 59.082 C 49.059 57.662 46.682 53.321 44.588 49.436 L 40.780 42.371 43.887 37.936 C 47.878 32.238 49.220 25.284 47.562 18.893 C 46.406 14.437 41.781 6.977 40.199 7.018 C 39.815 7.028 36.367 10.472 32.537 14.672 M 43.032 16.566 C 47.316 25.416 43.596 36.614 34.899 41.052 C 29.887 43.609 21.501 43.828 17.035 41.518 L 13.893 39.894 26.697 26.043 C 33.739 18.426 39.797 12.150 40.161 12.097 C 40.524 12.043 41.816 14.054 43.032 16.566 M 42.139 52.250 C 44.537 56.788 46.650 60.838 46.833 61.250 C 47.017 61.663 41.470 62.000 34.507 62.000 L 21.847 62.000 25.835 54.750 C 28.667 49.600 30.789 47.007 33.161 45.798 C 34.997 44.862 36.787 44.074 37.139 44.048 C 37.490 44.022 39.740 47.713 42.139 52.250 "/></g>
<g fill="#4874CBFF" stroke="#4874CBFF">
<path d="M 8.500 1.942 C 5.302 3.284 2.085 7.326 1.370 10.899 C 0.795 13.776 0.954 14.156 2.605 13.841 C 3.647 13.642 4.638 12.519 4.806 11.344 C 5.132 9.066 7.666 6.366 11.145 4.589 C 15.125 2.555 12.736 0.165 8.500 1.942 "/></g>
<g fill="#4874CBFF" stroke="#4874CBFF">
<path d="M 8.455 8.455 C 5.815 11.094 5.150 15.000 7.339 15.000 C 8.076 15.000 9.174 13.914 9.779 12.587 C 10.383 11.259 11.806 9.879 12.939 9.519 C 14.073 9.160 15.000 8.221 15.000 7.433 C 15.000 5.163 11.144 5.765 8.455 8.455 "/></g>
</svg>
