<?xml version="1.0" encoding="utf-8"?>
<!DOCTYPE svg PUBLIC "-//W3C//DTD SVG 20010904//EN" "http://www.w3.org/TR/2001/REC-SVG-20010904/DTD/svg10.dtd">
<svg version="1.0" xmlns="http://www.w3.org/2000/svg" width="56pt" height="66pt" viewBox="0 0 56 66" style="" preserveAspectRatio="xMidYMid meet">
<g fill="#4874CBFF" stroke="#4874CBFF">
<path d="M 9.000 2.500 C 9.000 3.325 9.675 4.000 10.500 4.000 C 11.325 4.000 12.000 4.651 12.000 5.448 C 12.000 6.489 10.527 6.980 6.750 7.198 C 1.542 7.498 1.501 7.525 1.675 10.671 C 1.937 15.417 4.602 18.831 8.327 19.192 C 11.099 19.461 11.540 19.911 11.813 22.750 C 12.123 25.961 12.075 26.000 7.813 26.015 C 1.154 26.039 0.432 26.951 2.410 32.849 C 3.578 36.331 6.206 38.542 8.750 38.180 C 10.723 37.900 11.000 38.301 11.000 41.430 C 11.000 44.886 10.880 45.000 7.250 45.015 C 2.853 45.033 1.011 45.975 1.367 48.025 C 2.397 53.972 5.763 57.909 9.867 57.967 C 11.791 57.994 12.151 58.430 11.793 60.301 C 11.405 62.331 11.685 62.553 14.177 62.187 C 16.279 61.879 17.000 62.185 17.000 63.387 C 17.000 64.768 18.497 65.000 27.393 65.000 C 35.709 65.000 37.901 64.700 38.362 63.500 C 38.678 62.675 40.076 62.000 41.469 62.000 C 43.333 62.000 44.000 61.473 44.000 60.000 C 44.000 58.602 44.678 57.990 46.250 57.967 C 49.093 57.925 52.497 55.120 53.560 51.944 C 55.570 45.938 54.873 45.039 48.187 45.015 C 43.925 45.000 43.877 44.961 44.187 41.750 C 44.449 39.034 44.910 38.500 47.000 38.500 C 51.073 38.500 54.766 33.496 54.197 28.750 C 53.890 26.188 53.546 26.000 49.184 26.001 L 44.500 26.001 44.600 22.517 C 44.655 20.601 44.971 19.305 45.303 19.637 C 46.711 21.044 51.072 18.761 52.593 15.820 C 56.312 8.629 54.782 5.570 47.727 6.087 C 45.911 6.220 44.391 5.816 44.250 5.162 C 44.113 4.523 44.675 4.000 45.500 4.000 C 46.325 4.000 47.000 3.325 47.000 2.500 C 47.000 1.219 44.222 1.000 28.000 1.000 C 11.778 1.000 9.000 1.219 9.000 2.500 M 32.158 10.418 C 33.071 10.817 34.344 12.415 34.987 13.969 C 35.935 16.258 35.861 17.368 34.596 19.814 C 31.733 25.351 23.462 24.944 21.062 19.149 C 19.991 16.565 20.069 15.691 21.600 13.100 C 23.914 9.183 27.344 8.311 32.158 10.418 M 32.854 28.331 C 35.397 30.372 36.091 33.924 34.534 36.935 C 31.474 42.851 24.502 42.806 21.422 36.850 C 17.883 30.006 26.727 23.416 32.854 28.331 M 32.021 45.529 C 34.187 46.911 36.067 51.660 35.272 53.738 C 34.230 56.458 30.766 58.933 28.000 58.933 C 25.235 58.933 21.770 56.459 20.729 53.741 C 19.896 51.563 21.521 47.071 23.727 45.458 C 25.620 44.073 29.796 44.109 32.021 45.529 "/></g>
<g fill="#7697D8FF" stroke="#7697D8FF">
<path d="M 8.750 19.656 C 10.398 20.010 11.052 20.923 11.194 23.070 C 11.361 25.577 11.397 25.531 11.444 22.750 C 11.492 19.977 11.133 19.476 9.000 19.336 C 6.797 19.192 6.767 19.230 8.750 19.656 "/></g>
<g fill="#7697D8FF" stroke="#7697D8FF">
<path d="M 11.336 60.000 C 11.470 62.038 12.008 62.488 14.250 62.438 C 16.352 62.390 16.428 62.331 14.570 62.188 C 12.941 62.062 11.980 61.257 11.656 59.750 C 11.230 57.767 11.192 57.797 11.336 60.000 "/></g>
<g fill="#7697D8FF" stroke="#7697D8FF">
<path d="M 38.667 62.667 C 38.300 63.033 38.007 63.821 38.015 64.417 C 38.025 65.137 38.277 65.115 38.765 64.351 C 39.169 63.719 40.625 62.993 42.000 62.737 L 44.500 62.272 41.917 62.136 C 40.496 62.061 39.033 62.300 38.667 62.667 "/></g>
<g fill="#7697D8FF" stroke="#7697D8FF">
<path d="M 50.378 56.378 L 49.500 57.256 50.378 56.378 L 51.256 55.500 50.378 56.378 "/></g>
<g fill="#7697D8FF" stroke="#7697D8FF">
<path d="M 5.500 56.500 L 7.000 58.000 5.500 56.500 L 4.000 55.000 5.500 56.500 "/></g>
</svg>
