<?xml version="1.0" encoding="utf-8"?>
<!DOCTYPE svg PUBLIC "-//W3C//DTD SVG 20010904//EN" "http://www.w3.org/TR/2001/REC-SVG-20010904/DTD/svg10.dtd">
<svg version="1.0" xmlns="http://www.w3.org/2000/svg" width="66pt" height="50pt" viewBox="0 0 66 50" style="" preserveAspectRatio="xMidYMid meet">
<g fill="#4874CBFF" stroke="#4874CBFF">
<path d="M 1.455 2.258 C 1.180 2.973 1.078 12.321 1.228 23.029 L 1.500 42.500 6.750 42.802 C 10.422 43.014 12.000 43.523 12.000 44.496 C 12.000 46.533 16.009 49.000 19.321 49.000 C 21.228 49.000 23.143 47.988 25.000 46.000 C 27.612 43.204 28.292 43.000 35.000 43.000 C 41.708 43.000 42.388 43.204 45.000 46.000 C 46.984 48.124 48.737 49.000 51.000 49.000 C 53.263 49.000 55.016 48.124 57.000 46.000 C 58.723 44.155 60.803 43.000 62.401 43.000 L 65.000 43.000 65.000 32.452 C 65.000 22.113 64.931 21.796 61.512 16.452 L 58.025 11.000 49.567 11.000 L 41.110 11.000 40.805 6.250 L 40.500 1.500 21.227 1.228 C 6.130 1.016 1.846 1.239 1.455 2.258 M 37.000 22.000 L 37.000 39.000 32.401 39.000 C 28.581 39.000 27.328 38.492 25.000 36.000 C 21.336 32.078 17.768 32.078 13.846 36.000 C 11.881 37.965 9.838 39.000 7.923 39.000 L 5.000 39.000 5.000 22.000 L 5.000 5.000 21.000 5.000 L 37.000 5.000 37.000 22.000 M 58.405 19.428 C 60.580 23.139 61.000 25.082 61.000 31.428 C 61.000 35.593 60.731 39.000 60.401 39.000 C 60.072 39.000 58.541 37.650 57.000 36.000 C 53.336 32.078 49.768 32.078 45.846 36.000 C 44.196 37.650 42.431 39.000 41.923 39.000 C 41.410 39.000 41.000 33.667 41.000 27.000 L 41.000 15.000 48.405 15.000 L 55.810 15.000 58.405 19.428 M 53.066 38.035 C 55.246 39.202 55.602 41.998 53.800 43.800 C 51.998 45.602 49.202 45.246 48.035 43.066 C 46.696 40.564 46.712 40.431 48.571 38.571 C 50.431 36.712 50.564 36.696 53.066 38.035 M 21.066 38.035 C 24.502 39.874 22.860 45.000 18.835 45.000 C 17.348 45.000 15.000 42.329 15.000 40.637 C 15.000 39.994 17.994 37.000 18.637 37.000 C 18.909 37.000 20.002 37.466 21.066 38.035 "/></g>
<g fill="#4874CBFF" stroke="#4874CBFF">
<path d="M 45.000 23.000 L 45.000 27.000 51.000 27.000 C 54.300 27.000 57.000 26.586 57.000 26.081 C 57.000 25.576 56.213 23.778 55.250 22.087 C 53.728 19.413 52.946 19.012 49.250 19.006 L 45.000 19.000 45.000 23.000 "/></g>
</svg>
